<?xml version="1.0" standalone="no"?><!DOCTYPE svg PUBLIC "-//W3C//DTD SVG 1.1//EN" "http://www.w3.org/Graphics/SVG/1.1/DTD/svg11.dtd"><svg t="1683023155868" class="icon" viewBox="0 0 1024 1024" version="1.1" xmlns="http://www.w3.org/2000/svg" p-id="3708" xmlns:xlink="http://www.w3.org/1999/xlink" width="128" height="128"><path d="M812.4 340.3c-12.1 0-21.9 9.8-21.9 21.9v500c0 33-26.8 59.8-59.8 59.8H296.8c-33 0-59.8-26.8-59.8-59.8v-500c0-12.1-9.8-21.9-21.9-21.9-12.1 0-21.9 9.8-21.9 21.9v500c0 57.1 46.4 103.5 103.5 103.5h433.9c57.1 0 103.5-46.4 103.5-103.5v-500c0.2-12.1-9.6-21.9-21.7-21.9z m90-102.1H752.5v-111c0-35.5-28.9-64.3-64.3-64.3h-348c-35.5 0-64.3 28.9-64.3 64.3v111.1H124.4c-12.1 0-21.9 9.8-21.9 21.9 0 12.1 9.8 21.9 21.9 21.9h778c12.1 0 21.9-9.8 21.9-21.9 0-12.2-9.8-22-21.9-22z m-582.8-111c0-11.4 9.2-20.6 20.6-20.6h347.9c11.4 0 20.6 9.2 20.6 20.6v111H319.6v-111z" p-id="3709" fill="#ffffff"></path><path d="M618.2 778.7c12.1 0 21.9-9.8 21.9-21.9V360.6c0-12.1-9.8-21.9-21.9-21.9-12.1 0-21.9 9.8-21.9 21.9v396.2c0.1 12.1 9.9 21.9 21.9 21.9z m-210.7 0c12.1 0 21.9-9.8 21.9-21.9V360.6c0-12.1-9.8-21.9-21.9-21.9-12.1 0-21.9 9.8-21.9 21.9v396.2c0 12.1 9.8 21.9 21.9 21.9z" p-id="3710" fill="#ffffff"></path></svg>