<?xml version="1.0" standalone="no"?><!DOCTYPE svg PUBLIC "-//W3C//DTD SVG 1.1//EN" "http://www.w3.org/Graphics/SVG/1.1/DTD/svg11.dtd"><svg t="1683084229901" class="icon" viewBox="0 0 1024 1024" version="1.1" xmlns="http://www.w3.org/2000/svg" p-id="2656" xmlns:xlink="http://www.w3.org/1999/xlink" width="128" height="128"><path d="M573.013333 725.333333V389.973333a30.72 30.72 0 0 1 61.44 0V725.333333a30.72 30.72 0 0 1-61.44 0m-183.466666 0V389.973333a30.72 30.72 0 0 1 61.44 0V725.333333a30.72 30.72 0 0 1-61.44 0M909.226667 237.653333h-152.746667V176.64A91.306667 91.306667 0 0 0 665.6 85.333333H359.253333a91.306667 91.306667 0 0 0-91.733333 91.306667v61.013333H114.773333a30.72 30.72 0 0 0 0 61.013334h794.453334a30.72 30.72 0 0 0 0-61.013334M328.533333 176.64a31.146667 31.146667 0 0 1 30.72-30.293333h306.346667a29.44 29.44 0 0 1 29.866667 30.293333v61.013333H328.533333V176.64M725.333333 938.666667H298.666667a91.306667 91.306667 0 0 1-91.733334-91.306667V389.973333a29.866667 29.866667 0 0 1 30.293334-30.293333 30.293333 30.293333 0 0 1 30.72 30.293333v457.386667a31.146667 31.146667 0 0 0 30.72 30.293333h426.666666a31.146667 31.146667 0 0 0 30.72-30.293333V391.253333a30.72 30.72 0 0 1 61.013334 0v456.106667A91.306667 91.306667 0 0 1 725.333333 938.666667z" fill="#3366cc" p-id="2657"></path></svg>