<?xml version="1.0" standalone="no"?><!DOCTYPE svg PUBLIC "-//W3C//DTD SVG 1.1//EN" "http://www.w3.org/Graphics/SVG/1.1/DTD/svg11.dtd"><svg t="1629682015360" class="icon" viewBox="0 0 1024 1024" version="1.1" xmlns="http://www.w3.org/2000/svg" p-id="5421" width="16" height="16" xmlns:xlink="http://www.w3.org/1999/xlink"><defs><style type="text/css"></style></defs><path d="M870.7968 935.936c13.141333 0 23.893333 10.922667 23.893333 24.234667v8.533333c0 13.368889-10.752 24.291556-23.893333 24.291556H80.7808A24.120889 24.120889 0 0 1 56.887467 968.760889v-8.590222c0-13.312 10.808889-24.234667 23.893333-24.234667h790.016zM226.416356 586.296889l177.095111 179.2a24.462222 24.462222 0 0 1 0 34.247111l-6.144 6.200889a23.779556 23.779556 0 0 1-33.848889 0l-177.095111-179.2a24.462222 24.462222 0 0 1 0-34.247111l6.087111-6.200889a23.779556 23.779556 0 0 1 33.905778 0z" fill="#3366cc" p-id="5422"></path><path d="M555.063467 189.667556a23.495111 23.495111 0 0 0-33.393778-0.113778l-371.712 371.484444c-9.216 9.102222-19.228444 27.022222-22.300445 39.765334L57.570133 891.733333c-3.072 12.686222 4.835556 20.764444 17.408 17.92l292.807111-65.308444c12.629333-2.844444 30.549333-12.686222 39.708445-21.845333l370.744889-371.655112a24.007111 24.007111 0 0 0 0.113778-33.621333l-223.288889-227.555555zM369.776356 774.485333c-9.329778 9.159111-19.114667 17.237333-21.731556 17.976889a1707.235556 1707.235556 0 0 1-27.761778 6.769778l-173.681778 40.391111c-12.629333 2.958222-20.423111-5.006222-17.351111-17.749333l42.666667-176.355556 6.712889-27.306666c0.568889-2.332444 8.590222-11.832889 17.635555-21.048889l321.706667-326.712889a23.210667 23.210667 0 0 1 33.109333 0l146.033778 148.878222a23.779556 23.779556 0 0 1-0.398222 33.507556l-326.940444 321.706666zM733.865244 6.997333a23.324444 23.324444 0 0 0-33.223111 0L574.576356 134.826667a23.893333 23.893333 0 0 0 0.170666 33.564444l226.360889 228.124445a23.324444 23.324444 0 0 0 33.223111 0l125.952-127.829334a23.893333 23.893333 0 0 0-0.113778-33.621333L733.865244 6.940444zM646.825244 167.822222a24.576 24.576 0 0 1-0.398222-33.962666l51.143111-53.873778a22.983111 22.983111 0 0 1 32.995556-0.512l159.175111 159.630222a24.007111 24.007111 0 0 1 0.113778 33.564444l-52.394667 53.134223a23.608889 23.608889 0 0 1-33.393778 0.113777L646.825244 167.822222z" fill="#3366cc" p-id="5423" data-spm-anchor-id="a313x.7781069.0.i4" class=""></path></svg>