<?xml version="1.0" standalone="no"?><!DOCTYPE svg PUBLIC "-//W3C//DTD SVG 1.1//EN" "http://www.w3.org/Graphics/SVG/1.1/DTD/svg11.dtd"><svg t="1691056257296" class="icon" viewBox="0 0 1024 1024" version="1.1" xmlns="http://www.w3.org/2000/svg" p-id="2300" xmlns:xlink="http://www.w3.org/1999/xlink" width="128" height="128"><path d="M68.266667 512A443.733333 443.733333 0 0 0 512 955.733333 443.733333 443.733333 0 0 0 955.733333 512 443.733333 443.733333 0 0 0 512 68.266667 443.733333 443.733333 0 0 0 68.266667 512z m-68.266667 0A512 512 0 0 1 512 0 512 512 0 0 1 1024 512 512 512 0 0 1 512 1024 512 512 0 0 1 0 512z m529.954133-233.2672c43.690667 0 79.189333 11.605333 106.496 36.181333 27.306667 23.893333 40.96 56.661333 40.96 97.621334 0 33.450667-8.874667 61.44-25.941333 83.285333-6.144 7.509333-25.258667 25.258667-57.344 53.248-12.970667 10.922667-22.528 23.210667-28.672 35.498667-7.509333 13.653333-10.922667 28.672-10.922667 45.056v11.605333h-73.045333v-11.605333c0-25.258667 4.096-47.104 13.653333-64.853334 8.874667-19.114667 34.816-47.104 77.141334-84.650666l11.605333-12.970667c12.288-15.701333 19.114667-32.085333 19.114667-49.834667 0-23.893333-6.826667-42.325333-19.797334-55.978666-13.653333-13.653333-33.450667-20.48-58.026666-20.48-30.72 0-53.248 9.557333-66.901334 29.354666-12.288 16.384-18.432 39.594667-18.432 69.632h-71.68c0-49.834667 14.336-88.746667 43.008-117.418666 28.672-29.354667 68.266667-43.690667 118.784-43.690667z m-12.288 399.36c14.336 0 26.624 4.096 36.181334 13.653333 9.557333 8.874667 14.336 20.48 14.336 34.816 0 14.336-5.461333 25.941333-15.018667 35.498667a51.2 51.2 0 0 1-35.498667 13.653333 48.9472 48.9472 0 0 1-49.834666-49.152c0-14.336 4.778667-25.941333 14.336-34.816 9.557333-9.557333 21.845333-13.653333 35.498666-13.653333z" fill="#979797" p-id="2301"></path></svg>